<svg width="260" height="260" viewBox="0 0 260 260" xmlns="http://www.w3.org/2000/svg">
  <style>
    @media (prefers-color-scheme: dark) {
      .a { fill: #ffffff; }
    }
  </style>
  <path class="a" fill="black" d="M188.573 52.4333C180.151 73.2557 161.13 73.2959 152.708 52.4333C146.945 38.1759 138.16 30 128.69 30C119.22 30 110.476 38.1759 104.673 52.4736C96.2906 73.2959 77.2295 73.3362 68.8072 52.4736C63.0445 38.2162 54.2998 30.0403 44.7894 30.0403C39.5104 30.0403 34.4328 32.6582 30 37.4106V62.8646C34.0298 56.34 39.188 52.6347 44.7894 52.6347C51.9625 52.6347 58.4908 58.5954 62.7221 68.9462C68.4848 83.2439 77.2698 91.4601 86.7802 91.4601C96.2905 91.4601 105.035 83.2439 110.798 68.9462C114.989 58.5552 121.558 52.5944 128.731 52.5944C135.904 52.5944 142.432 58.5552 146.623 68.9059C152.426 83.2036 161.171 91.4198 170.681 91.4198C180.191 91.4198 188.936 83.2036 194.699 68.9059C198.93 58.5149 205.458 52.5542 212.631 52.5542C219.522 52.5542 225.769 58.1927 230 67.8588V40.5522C224.922 33.8262 218.878 30.0806 212.631 30C203.161 30 194.376 38.1759 188.573 52.4736" />
  <path class="a" fill="black" d="M188.573 121.223C180.151 142.046 161.13 142.046 152.708 121.223C146.945 106.966 138.16 98.7901 128.69 98.7901C119.22 98.7901 110.476 106.966 104.673 121.264C96.2905 142.086 77.2295 142.086 68.8072 121.264C63.0445 107.006 54.2998 98.8304 44.7894 98.8304C39.5104 98.8304 34.4328 101.448 30 106.201V131.655C34.0298 125.13 39.188 121.425 44.7894 121.425C51.9625 121.425 58.4908 127.386 62.7221 137.736C68.4848 152.034 77.2698 160.25 86.7802 160.25C96.2905 160.25 105.035 152.034 110.798 137.736C114.989 127.345 121.558 121.385 128.731 121.385C135.904 121.385 142.432 127.345 146.623 137.696C152.426 151.994 161.171 160.21 170.681 160.21C180.191 160.21 188.936 151.994 194.699 137.696C198.93 127.305 205.458 121.344 212.631 121.344C219.522 121.344 225.769 126.983 230 136.649V109.302C224.922 102.576 218.878 98.8304 212.631 98.7499C203.161 98.7499 194.376 106.926 188.573 121.223Z" />
  <path class="a" fill="black" d="M188.573 189.973C180.151 210.796 161.13 210.836 152.708 189.973C146.945 175.716 138.16 167.54 128.69 167.54C119.22 167.54 110.476 175.716 104.673 190.014C96.2905 210.836 77.2295 210.876 68.8072 190.014C63.0445 175.756 54.2998 167.58 44.7894 167.58C39.5104 167.58 34.4328 170.198 30 174.951V200.405C34.0298 193.88 39.188 190.175 44.7894 190.175C51.9625 190.175 58.4908 196.135 62.7221 206.486C68.4848 220.784 77.2698 229 86.7802 229C96.2905 229 105.035 220.784 110.798 206.486C114.989 196.095 121.558 190.134 128.731 190.134C135.904 190.134 142.432 196.095 146.623 206.446C152.426 220.744 161.171 228.96 170.681 228.96C180.191 228.96 188.936 220.744 194.699 206.446C198.93 196.055 205.458 190.094 212.631 190.094C219.522 190.094 225.769 195.733 230 205.399V178.052C224.922 171.326 218.878 167.58 212.631 167.54C203.161 167.54 194.376 175.716 188.573 190.014" />
</svg>
