<svg width="37" height="63" viewBox="0 0 37 63" xmlns="http://www.w3.org/2000/svg">
  <path d="M21.9334 22.6396H23.6003V12.4082H21.9334V17.3718H15.0049V12.4082H13.3997V22.6396H15.0049V17.676H21.9334V22.6396Z" />
  <path d="M21.4874 41.5444C21.0578 42.607 20.0877 42.609 19.6582 41.5444C19.3643 40.8168 18.9162 40.3996 18.4332 40.3996C17.9502 40.3996 17.5042 40.8168 17.2082 41.5464C16.7807 42.609 15.8086 42.6111 15.379 41.5464C15.0851 40.8188 14.6391 40.4016 14.154 40.4016C13.8848 40.4016 13.6258 40.5352 13.3997 40.7777V42.0767C13.6053 41.7437 13.8683 41.5547 14.154 41.5547C14.5199 41.5547 14.8528 41.8588 15.0686 42.3871C15.3626 43.1167 15.8106 43.536 16.2957 43.536C16.7807 43.536 17.2267 43.1167 17.5206 42.3871C17.7344 41.8568 18.0694 41.5526 18.4353 41.5526C18.8011 41.5526 19.1341 41.8568 19.3478 42.385C19.6438 43.1146 20.0898 43.5339 20.5748 43.5339C21.0599 43.5339 21.5059 43.1146 21.7998 42.385C22.0156 41.8547 22.3486 41.5505 22.7144 41.5505C23.0659 41.5505 23.3845 41.8383 23.6003 42.3316V40.9381C23.3413 40.5948 23.033 40.4037 22.7144 40.3996C22.2314 40.3996 21.7834 40.8168 21.4874 41.5464" />
  <path d="M21.4874 45.0549C21.0578 46.1175 20.0877 46.1175 19.6582 45.0549C19.3643 44.3273 18.9162 43.91 18.4332 43.91C17.9502 43.91 17.5042 44.3273 17.2082 45.0569C16.7807 46.1195 15.8086 46.1195 15.379 45.0569C15.0851 44.3293 14.6391 43.9121 14.154 43.9121C13.8848 43.9121 13.6258 44.0457 13.3997 44.2882V45.5872C13.6053 45.2542 13.8683 45.0651 14.154 45.0651C14.5199 45.0651 14.8528 45.3693 15.0686 45.8975C15.3626 46.6272 15.8106 47.0465 16.2957 47.0465C16.7807 47.0465 17.2267 46.6272 17.5206 45.8975C17.7344 45.3673 18.0694 45.0631 18.4353 45.0631C18.8011 45.0631 19.1341 45.3673 19.3478 45.8955C19.6438 46.6251 20.0898 47.0444 20.5748 47.0444C21.0599 47.0444 21.5059 46.6251 21.7998 45.8955C22.0156 45.3652 22.3486 45.061 22.7144 45.061C23.0659 45.061 23.3845 45.3488 23.6003 45.842V44.4465C23.3413 44.1032 23.033 43.9121 22.7144 43.908C22.2314 43.908 21.7834 44.3252 21.4874 45.0549Z" />
  <path d="M21.4874 48.5633C21.0578 49.6259 20.0877 49.6279 19.6582 48.5633C19.3643 47.8357 18.9162 47.4185 18.4332 47.4185C17.9502 47.4185 17.5042 47.8357 17.2082 48.5653C16.7807 49.6279 15.8086 49.63 15.379 48.5653C15.0851 47.8378 14.6391 47.4205 14.154 47.4205C13.8848 47.4205 13.6258 47.5541 13.3997 47.7967V49.0956C13.6053 48.7626 13.8683 48.5736 14.154 48.5736C14.5199 48.5736 14.8528 48.8777 15.0686 49.406C15.3626 50.1356 15.8106 50.5549 16.2957 50.5549C16.7807 50.5549 17.2267 50.1356 17.5206 49.406C17.7344 48.8757 18.0694 48.5715 18.4353 48.5715C18.8011 48.5715 19.1341 48.8757 19.3478 49.4039C19.6438 50.1335 20.0898 50.5528 20.5748 50.5528C21.0599 50.5528 21.5059 50.1335 21.7998 49.4039C22.0156 48.8736 22.3486 48.5695 22.7144 48.5695C23.0659 48.5695 23.3845 48.8572 23.6003 49.3505V47.9549C23.3413 47.6117 23.033 47.4205 22.7144 47.4185C22.2314 47.4185 21.7834 47.8357 21.4874 48.5653" />
  <path d="M18.501 61.5015C9.08767 61.5015 1.42751 53.8434 1.42751 44.428C1.42751 39.4151 3.61231 34.9139 7.06524 31.7878C10.1359 34.4474 14.1294 36.0711 18.501 36.0711C22.8727 36.0711 26.8662 34.4494 29.9368 31.7878C33.3897 34.9139 35.5746 39.4151 35.5746 44.428C35.5746 53.8413 27.9164 61.5015 18.5031 61.5015M29.6182 31.5C26.6278 34.0754 22.7473 35.6456 18.499 35.6456C14.2506 35.6456 10.3702 34.0774 7.37971 31.5C10.3702 28.9227 14.2506 27.3545 18.499 27.3545C22.7473 27.3545 26.6278 28.9227 29.6182 31.5ZM1.42751 18.5721C1.42751 9.15668 9.08562 1.49857 18.501 1.49857C27.9164 1.49857 35.5725 9.15668 35.5725 18.5721C35.5725 23.585 33.3877 28.0862 29.9348 31.2143C26.8641 28.5548 22.8706 26.9311 18.499 26.9311C14.1273 26.9311 10.1338 28.5527 7.06319 31.2143C3.61231 28.0862 1.42751 23.585 1.42751 18.5721ZM30.2513 31.5C33.772 28.2979 36 23.696 36 18.5721C36 8.92238 28.1487 1.07312 18.501 1.07312C8.85337 1.07312 1 8.92238 1 18.5721C1 23.696 3.22796 28.2979 6.74872 31.5C3.22796 34.7022 1 39.3041 1 44.428C1 54.0777 8.85131 61.927 18.501 61.927C28.1507 61.927 36 54.0777 36 44.428C36 39.3041 33.772 34.7022 30.2513 31.5Z" />
</svg>
