<svg width="138" height="28" viewBox="0 0 138 28" fill="none" xmlns="http://www.w3.org/2000/svg">
<path d="M21.547 1.66911V13.6094H4.87839V1.66911H1.01706V26.2767H4.87839V14.3381H21.547V26.2767H25.5555V1.66911H21.547Z" fill="black"/>
<path d="M81.6688 1.66911L70.8543 22.0732L59.421 1.66911H54.753L68.4733 26.3104H69.4732L82.4312 1.66911H81.6688Z" fill="black"/>
<path d="M49.7411 11.0335C49.6772 13.1698 48.6135 15.5419 46.5481 18.1551C44.4827 20.7666 42.3092 22.4508 40.0204 23.2078C37.7351 23.9631 35.7637 23.0766 34.1131 20.5449C33.732 19.8234 33.5263 19.1408 33.4944 18.499C33.4625 17.859 33.5423 17.3094 33.732 16.8485C33.9235 16.3893 34.2319 15.9532 34.661 15.5419C35.09 15.1324 35.5261 14.8026 35.9711 14.5579C36.4143 14.3115 36.9232 14.081 37.4958 13.8683C38.0667 13.6538 38.5507 13.4978 38.9478 13.4002C39.3449 13.301 39.742 13.2017 40.1392 13.1042C40.5363 13.0049 40.7508 12.957 40.7827 12.957C42.3074 12.5954 43.6654 12.2337 44.8568 11.872C46.0482 11.5104 46.9364 11.1912 47.525 10.9111C48.1118 10.6328 48.5887 10.3793 48.9539 10.147C49.3191 9.91654 49.5496 9.75344 49.6453 9.65416L49.7889 9.55488L49.7411 11.0335ZM53.6006 18.8199V18.1303C53.5687 16.2244 53.5528 13.8435 53.5528 10.9838C53.5528 9.60452 53.1627 8.28195 52.3844 7.01612C51.6061 5.75205 50.5584 4.69187 49.2411 3.83734C47.9221 2.98282 46.4861 2.30203 44.9295 1.79144C43.3729 1.28263 41.7454 1.04329 40.047 1.07697C38.3468 1.11066 36.7991 1.42268 35.402 2.01305L31.4946 6.9913L38.5453 4.28056C42.0078 2.93495 44.7628 2.56442 46.8105 3.17074C48.8582 3.77884 49.851 5.51094 49.7872 8.37059C49.7872 8.56738 49.6684 8.7819 49.429 9.0106C49.1915 9.24108 48.8972 9.45382 48.5479 9.65239C48.1969 9.84918 47.7608 10.0548 47.2378 10.2676C46.7148 10.4821 46.206 10.67 45.7131 10.8349C45.2202 10.9998 44.6813 11.1717 44.0945 11.3526C43.5059 11.5334 42.9988 11.6806 42.5698 11.7958C42.1407 11.911 41.7117 12.0174 41.2827 12.1149C40.8536 12.2124 40.5682 12.2798 40.4264 12.3117C40.2828 12.3436 40.164 12.3773 40.0683 12.411C35.4304 13.3967 32.3509 15.2689 30.8262 18.0292C29.6827 20.0982 29.6987 22.0377 30.8741 23.8443C32.0814 25.7501 34.0972 26.7039 36.9232 26.7039C38.7014 26.7039 40.4654 26.0958 42.2117 24.8796C45.1014 22.8763 47.5941 19.6231 49.6914 15.1217L49.7393 14.9746L49.6436 18.1285V21.9721C49.7393 23.8141 50.2552 24.9966 51.1913 25.5214C52.1274 26.0462 53.8825 26.3086 56.455 26.3086C54.5491 25.8831 53.5971 23.3851 53.5971 18.8182" fill="black"/>
<path d="M87.8048 5.31593C88.9483 3.90294 90.6555 2.96863 92.9266 2.50769C95.1959 2.04674 97.2383 2.36054 99.0484 3.44377C99.7788 3.90471 100.341 4.47913 100.74 5.16878C101.137 5.85843 101.208 6.50021 100.954 7.09058C100.699 7.68272 100.064 8.0107 99.0484 8.0763L96.5699 8.22345L86.1365 8.56738C86.4538 7.32105 87.0105 6.23428 87.8048 5.31593ZM102.715 23.378C100.873 24.479 99.1725 25.0286 97.6176 25.0286C95.4902 25.0286 93.5843 24.5109 91.9019 23.4773C90.2177 22.4419 88.9164 21.1353 87.9962 19.5592C87.0743 17.9814 86.4308 16.2812 86.0673 14.4587C85.7021 12.6344 85.6773 10.9023 85.9964 9.25881H99.8107C103.463 9.15952 105.289 7.97702 105.289 5.71128C105.289 5.54817 105.273 5.38329 105.241 5.21842C105.207 5.05531 105.113 4.78406 104.956 4.40644C104.796 4.02882 104.582 3.68488 104.314 3.37108C104.043 3.05905 103.605 2.7293 103.004 2.38536C102.399 2.04142 101.701 1.77017 100.906 1.57161C98.0485 0.881956 95.4281 0.81636 93.0472 1.37482C91.6182 1.7684 90.2762 2.3694 89.021 3.17252C87.7658 3.97917 86.7818 4.7752 86.0673 5.56413C85.3529 6.35129 84.7093 7.20759 84.1385 8.12594C83.5676 9.04783 83.2006 9.67898 83.0428 10.0229C82.8833 10.3686 82.7733 10.6399 82.7095 10.8367C82.2964 12.216 82.0819 13.6378 82.066 15.0987C82.05 16.5613 82.3603 18.0062 82.9949 19.4351C83.6296 20.8641 84.4168 22.137 85.3529 23.2539C86.289 24.3726 87.4963 25.275 88.9731 25.9646C90.4499 26.6543 92.0455 27 93.7616 27C96.9369 27 99.8603 26.1136 102.527 24.3371C103.702 23.6156 104.695 22.761 105.505 21.7753C106.315 20.7896 106.806 20.0911 106.982 19.6798C107.158 19.2703 107.275 18.9494 107.338 18.7189H107.053C106.007 20.724 104.56 22.2753 102.718 23.3762" fill="black"/>
<path d="M133.281 1.66911V20.0503L114.621 1.66911H108.682V1.70457C108.682 1.70457 110.719 3.52886 111.086 3.90826C111.45 4.28411 111.902 4.58373 111.909 5.07127V26.3139H112.613V5.47726C114.304 7.12603 130.762 23.1794 133.568 26.3139H133.983V1.66911H133.281Z" fill="black"/>
</svg>
