<svg xmlns="http://www.w3.org/2000/svg" width="173" height="298" viewBox="0 0 173 298">
  <path d="M102.85 105.93h8.11V56.15h-8.11V80.3H69.14V56.15h-7.81v49.78h7.81V81.78h33.71v24.15ZM100.68 197.91c-2.09 5.17-6.81 5.18-8.9 0-1.43-3.54-3.61-5.57-5.96-5.57s-4.52 2.03-5.96 5.58c-2.08 5.17-6.81 5.18-8.9 0-1.43-3.54-3.6-5.57-5.96-5.57-1.31 0-2.57.65-3.67 1.83v6.32c1-1.62 2.28-2.54 3.67-2.54 1.78 0 3.4 1.48 4.45 4.05 1.43 3.55 3.61 5.59 5.97 5.59s4.53-2.04 5.96-5.59c1.04-2.58 2.67-4.06 4.45-4.06 1.78 0 3.4 1.48 4.44 4.05 1.44 3.55 3.61 5.59 5.97 5.59s4.53-2.04 5.96-5.59c1.05-2.58 2.67-4.06 4.45-4.06 1.71 0 3.26 1.4 4.31 3.8v-6.78c-1.26-1.67-2.76-2.6-4.31-2.62-2.35 0-4.53 2.03-5.97 5.58M100.68 214.99c-2.09 5.17-6.81 5.17-8.9 0-1.43-3.54-3.61-5.57-5.96-5.57s-4.52 2.03-5.96 5.58c-2.08 5.17-6.81 5.17-8.9 0-1.43-3.54-3.6-5.57-5.96-5.57-1.31 0-2.57.65-3.67 1.83v6.32c1-1.62 2.28-2.54 3.67-2.54 1.78 0 3.4 1.48 4.45 4.05 1.43 3.55 3.61 5.59 5.97 5.59s4.53-2.04 5.96-5.59c1.04-2.58 2.67-4.06 4.45-4.06 1.78 0 3.4 1.48 4.44 4.05 1.44 3.55 3.61 5.59 5.97 5.59s4.53-2.04 5.96-5.59c1.05-2.58 2.67-4.06 4.45-4.06 1.71 0 3.26 1.4 4.31 3.8v-6.79c-1.26-1.67-2.76-2.6-4.31-2.62-2.35 0-4.53 2.03-5.97 5.58ZM100.68 232.06c-2.09 5.17-6.81 5.18-8.9 0-1.43-3.54-3.61-5.57-5.96-5.57s-4.52 2.03-5.96 5.58c-2.08 5.17-6.81 5.18-8.9 0-1.43-3.54-3.6-5.57-5.96-5.57-1.31 0-2.57.65-3.67 1.83v6.32c1-1.62 2.28-2.54 3.67-2.54 1.78 0 3.4 1.48 4.45 4.05 1.43 3.55 3.61 5.59 5.97 5.59s4.53-2.04 5.96-5.59c1.04-2.58 2.67-4.06 4.45-4.06 1.78 0 3.4 1.48 4.44 4.05 1.44 3.55 3.61 5.59 5.97 5.59s4.53-2.04 5.96-5.59c1.05-2.58 2.67-4.06 4.45-4.06 1.71 0 3.26 1.4 4.31 3.8v-6.79c-1.26-1.67-2.76-2.6-4.31-2.61-2.35 0-4.53 2.03-5.97 5.58"/>
  <path d="M86.15 295.01c-45.8 0-83.07-37.26-83.07-83.07 0-24.39 10.63-46.29 27.43-61.5 14.94 12.94 34.37 20.84 55.64 20.84 21.27 0 40.7-7.89 55.64-20.84 16.8 15.21 27.43 37.11 27.43 61.5 0 45.8-37.26 83.07-83.06 83.07m54.08-145.97c-14.55 12.53-33.43 20.17-54.1 20.17s-39.55-7.63-54.1-20.17c14.55-12.54 33.43-20.17 54.1-20.17s39.55 7.63 54.1 20.17ZM3.08 86.14c0-45.81 37.26-83.07 83.07-83.07 45.81 0 83.06 37.26 83.06 83.07 0 24.39-10.63 46.29-27.43 61.51-14.94-12.94-34.37-20.84-55.64-20.84-21.27 0-40.7 7.89-55.64 20.84-16.79-15.22-27.42-37.12-27.42-61.51Zm140.24 62.9c17.13-15.58 27.97-37.97 27.97-62.9C171.29 39.19 133.09 1 86.15 1S1 39.19 1 86.14c0 24.93 10.84 47.32 27.97 62.9C11.84 164.62 1 187.01 1 211.94c0 46.95 38.2 85.14 85.15 85.14s85.14-38.19 85.14-85.14c0-24.93-10.84-47.32-27.97-62.9Z"/>
</svg>