<?xml version="1.0" encoding="UTF-8"?>
<svg xmlns="http://www.w3.org/2000/svg" version="1.1" viewBox="0 0 170.29 296.07">
  <!-- Generator: Adobe Illustrator 28.6.0, SVG Export Plug-In . SVG Version: 1.2.0 Build 709)  -->
  <g>
    <g id="Layer_1">
      <polygon points="101.85 104.93 109.96 104.93 109.96 55.15 101.85 55.15 101.85 79.3 68.14 79.3 68.14 55.15 60.33 55.15 60.33 104.93 68.14 104.93 68.14 80.78 101.85 80.78 101.85 104.93"/>
      <g>
        <path d="M99.68,196.91c-2.09,5.17-6.81,5.18-8.9,0-1.43-3.54-3.61-5.57-5.96-5.57h0c-2.35,0-4.52,2.03-5.96,5.58-2.08,5.17-6.81,5.18-8.9,0-1.43-3.54-3.6-5.57-5.96-5.57-1.31,0-2.57.65-3.67,1.83v6.32c1-1.62,2.28-2.54,3.67-2.54,1.78,0,3.4,1.48,4.45,4.05,1.43,3.55,3.61,5.59,5.97,5.59s4.53-2.04,5.96-5.59c1.04-2.58,2.67-4.06,4.45-4.06h0c1.78,0,3.4,1.48,4.44,4.05,1.44,3.55,3.61,5.59,5.97,5.59s4.53-2.04,5.96-5.59c1.05-2.58,2.67-4.06,4.45-4.06h0c1.71,0,3.26,1.4,4.31,3.8v-6.78c-1.26-1.67-2.76-2.6-4.31-2.62-2.35,0-4.53,2.03-5.97,5.58"/>
        <path d="M99.68,213.99c-2.09,5.17-6.81,5.17-8.9,0-1.43-3.54-3.61-5.57-5.96-5.57h0c-2.35,0-4.52,2.03-5.96,5.58-2.08,5.17-6.81,5.17-8.9,0-1.43-3.54-3.6-5.57-5.96-5.57-1.31,0-2.57.65-3.67,1.83v6.32c1-1.62,2.28-2.54,3.67-2.54,1.78,0,3.4,1.48,4.45,4.05,1.43,3.55,3.61,5.59,5.97,5.59s4.53-2.04,5.96-5.59c1.04-2.58,2.67-4.06,4.45-4.06h0c1.78,0,3.4,1.48,4.44,4.05,1.44,3.55,3.61,5.59,5.97,5.59s4.53-2.04,5.96-5.59c1.05-2.58,2.67-4.06,4.45-4.06h0c1.71,0,3.26,1.4,4.31,3.8v-6.79c-1.26-1.67-2.76-2.6-4.31-2.62-2.35,0-4.53,2.03-5.97,5.58"/>
        <path d="M99.68,231.06c-2.09,5.17-6.81,5.18-8.9,0-1.43-3.54-3.61-5.57-5.96-5.57h0c-2.35,0-4.52,2.03-5.96,5.58-2.08,5.17-6.81,5.18-8.9,0-1.43-3.54-3.6-5.57-5.96-5.57-1.31,0-2.57.65-3.67,1.83v6.32c1-1.62,2.28-2.54,3.67-2.54,1.78,0,3.4,1.48,4.45,4.05,1.43,3.55,3.61,5.59,5.97,5.59s4.53-2.04,5.96-5.59c1.04-2.58,2.67-4.06,4.45-4.06h0c1.78,0,3.4,1.48,4.44,4.05,1.44,3.55,3.61,5.59,5.97,5.59s4.53-2.04,5.96-5.59c1.05-2.58,2.67-4.06,4.45-4.06h0c1.71,0,3.26,1.4,4.31,3.8v-6.79c-1.26-1.67-2.76-2.6-4.31-2.61-2.35,0-4.53,2.03-5.97,5.58"/>
        <path d="M85.15,294.01c-45.8,0-83.07-37.26-83.07-83.07,0-24.39,10.63-46.29,27.43-61.5,14.94,12.94,34.37,20.84,55.64,20.84s40.7-7.89,55.64-20.84c16.8,15.21,27.43,37.11,27.43,61.5,0,45.8-37.26,83.07-83.06,83.07M139.24,148.04c-14.55,12.53-33.43,20.17-54.1,20.17s-39.55-7.63-54.1-20.17c14.55-12.54,33.43-20.17,54.1-20.17s39.55,7.63,54.1,20.17M2.08,85.14C2.08,39.33,39.34,2.07,85.15,2.07s83.06,37.26,83.06,83.07c0,24.39-10.63,46.29-27.43,61.51-14.94-12.94-34.37-20.84-55.64-20.84s-40.7,7.89-55.64,20.84C12.71,131.43,2.08,109.53,2.08,85.14M142.32,148.04c17.13-15.58,27.97-37.97,27.97-62.9C170.29,38.19,132.09,0,85.15,0S0,38.19,0,85.14c0,24.93,10.84,47.32,27.97,62.9C10.84,163.62,0,186.01,0,210.94c0,46.95,38.2,85.14,85.15,85.14s85.14-38.19,85.14-85.14c0-24.93-10.84-47.32-27.97-62.9"/>
      </g>
    </g>
  </g>
</svg>