<?xml version="1.0" encoding="UTF-8"?>
<svg xmlns="http://www.w3.org/2000/svg" version="1.1" viewBox="0 0 750 146.67">
  <!-- Generator: Adobe Illustrator 28.6.0, SVG Export Plug-In . SVG Version: 1.2.0 Build 709)  -->
  <g>
    <g id="Layer_1">
      <g>
        <path d="M274.83,56.6c-.36,12.05-6.36,25.43-18.01,40.17-11.65,14.73-23.91,24.23-36.82,28.5-12.89,4.26-24.01-.74-33.32-15.02-2.15-4.07-3.31-7.92-3.49-11.54-.18-3.61.27-6.71,1.34-9.31,1.08-2.59,2.82-5.05,5.24-7.37,2.42-2.31,4.88-4.17,7.39-5.55,2.5-1.39,5.37-2.69,8.6-3.89,3.22-1.21,5.95-2.09,8.19-2.64,2.24-.56,4.48-1.12,6.72-1.67,2.24-.56,3.45-.83,3.63-.83,8.6-2.04,16.26-4.08,22.98-6.12,6.72-2.04,11.73-3.84,15.05-5.42,3.31-1.57,6-3,8.06-4.31,2.06-1.3,3.36-2.22,3.9-2.78l.81-.56-.27,8.34ZM296.6,100.52v-3.89c-.18-10.75-.27-24.18-.27-40.31,0-7.78-2.2-15.24-6.59-22.38-4.39-7.13-10.3-13.11-17.73-17.93-7.44-4.82-15.54-8.66-24.32-11.54-8.78-2.87-17.96-4.22-27.54-4.03-9.59.19-18.32,1.95-26.2,5.28l-22.04,28.08,39.77-15.29c19.53-7.59,35.07-9.68,46.62-6.26,11.55,3.43,17.15,13.2,16.79,29.33,0,1.11-.67,2.32-2.02,3.61-1.34,1.3-3,2.5-4.97,3.62-1.98,1.11-4.44,2.27-7.39,3.47-2.95,1.21-5.82,2.27-8.6,3.2-2.78.93-5.82,1.9-9.13,2.92-3.32,1.02-6.18,1.85-8.6,2.5-2.42.65-4.84,1.25-7.26,1.8-2.42.55-4.03.93-4.83,1.11-.81.18-1.48.37-2.02.56-26.16,5.56-43.53,16.12-52.13,31.69-6.45,11.67-6.36,22.61.27,32.8,6.81,10.75,18.18,16.13,34.12,16.13,10.03,0,19.98-3.43,29.83-10.29,16.3-11.3,30.36-29.65,42.19-55.04l.27-.83-.54,17.79v21.68c.54,10.39,3.45,17.06,8.73,20.02,5.28,2.96,15.18,4.44,29.69,4.44-10.75-2.4-16.12-16.49-16.12-42.25"/>
        <polygon points="454.92 3.78 393.92 118.87 329.43 3.78 303.1 3.78 380.49 142.77 386.13 142.77 459.22 3.78 454.92 3.78"/>
        <polygon points="115.8 3.78 115.8 71.13 21.78 71.13 21.78 3.78 0 3.78 0 142.58 21.78 142.58 21.78 75.24 115.8 75.24 115.8 142.58 138.41 142.58 138.41 3.78 115.8 3.78"/>
        <g>
          <path d="M489.53,24.35c6.45-7.97,16.08-13.24,28.89-15.84,12.8-2.6,24.32-.83,34.53,5.28,4.12,2.6,7.29,5.84,9.54,9.73,2.24,3.89,2.64,7.51,1.21,10.84-1.44,3.34-5.02,5.19-10.75,5.56l-13.98.83-58.85,1.94c1.79-7.03,4.93-13.16,9.41-18.34M573.63,126.23c-10.39,6.21-19.98,9.31-28.75,9.31-12,0-22.75-2.92-32.24-8.75-9.5-5.84-16.84-13.21-22.03-22.1-5.2-8.9-8.83-18.49-10.88-28.77-2.06-10.29-2.2-20.06-.4-29.33h77.92c20.6-.56,30.9-7.23,30.9-20.01,0-.92-.09-1.85-.27-2.78-.19-.92-.72-2.45-1.61-4.58-.9-2.13-2.11-4.07-3.62-5.84-1.53-1.76-4-3.62-7.39-5.56-3.41-1.94-7.35-3.47-11.83-4.59-16.12-3.89-30.9-4.26-44.33-1.11-8.06,2.22-15.63,5.61-22.71,10.14-7.08,4.55-12.63,9.04-16.66,13.49-4.03,4.44-7.66,9.27-10.88,14.45-3.22,5.2-5.29,8.76-6.18,10.7-.9,1.95-1.52,3.48-1.88,4.59-2.33,7.78-3.54,15.8-3.63,24.04-.09,8.25,1.66,16.4,5.24,24.46,3.58,8.06,8.02,15.24,13.3,21.54,5.28,6.31,12.09,11.4,20.42,15.29,8.33,3.89,17.33,5.84,27.01,5.84,17.91,0,34.4-5,49.44-15.02,6.63-4.07,12.23-8.89,16.8-14.45,4.57-5.56,7.34-9.5,8.33-11.82.99-2.31,1.65-4.12,2.01-5.42h-1.61c-5.9,11.31-14.06,20.06-24.45,26.27"/>
          <path d="M746.04,3.78v103.68L640.79,3.78h-33.5v.2s11.49,10.29,13.56,12.43c2.05,2.12,4.6,3.81,4.64,6.56v119.82h3.97V25.26c9.54,9.3,102.37,99.85,118.2,117.53h2.34V3.78h-3.96Z"/>
        </g>
      </g>
    </g>
  </g>
</svg>